<svg width="38" height="38" viewBox="0 0 38 38" fill="none" xmlns="http://www.w3.org/2000/svg">
<rect x="-0.00805664" y="0.193848" width="37.024" height="37.024" rx="10.68" fill="#F6F6F6"/>
<path d="M18.4656 14.6696C16.2545 14.6696 14.471 16.453 14.471 18.6641C14.471 20.8752 16.2545 22.6587 18.4656 22.6587C20.6767 22.6587 22.4602 20.8752 22.4602 18.6641C22.4602 16.453 20.6767 14.6696 18.4656 14.6696ZM18.4656 21.2611C17.0367 21.2611 15.8686 20.0965 15.8686 18.6641C15.8686 17.2318 17.0332 16.0671 18.4656 16.0671C19.8979 16.0671 21.0626 17.2318 21.0626 18.6641C21.0626 20.0965 19.8944 21.2611 18.4656 21.2611ZM23.5553 14.5062C23.5553 15.0242 23.1381 15.4379 22.6236 15.4379C22.1055 15.4379 21.6918 15.0207 21.6918 14.5062C21.6918 13.9916 22.109 13.5744 22.6236 13.5744C23.1381 13.5744 23.5553 13.9916 23.5553 14.5062ZM26.2009 15.4518C26.1418 14.2037 25.8568 13.0982 24.9424 12.1873C24.0316 11.2764 22.926 10.9914 21.6779 10.9288C20.3916 10.8558 16.5361 10.8558 15.2498 10.9288C14.0052 10.9879 12.8996 11.273 11.9853 12.1838C11.0709 13.0947 10.7893 14.2002 10.7268 15.4483C10.6537 16.7346 10.6537 20.5901 10.7268 21.8765C10.7859 23.1246 11.0709 24.2301 11.9853 25.141C12.8996 26.0518 14.0017 26.3369 15.2498 26.3995C16.5361 26.4725 20.3916 26.4725 21.6779 26.3995C22.926 26.3404 24.0316 26.0553 24.9424 25.141C25.8533 24.2301 26.1384 23.1246 26.2009 21.8765C26.2739 20.5901 26.2739 16.7381 26.2009 15.4518ZM24.5391 23.2567C24.268 23.9381 23.743 24.463 23.0581 24.7377C22.0325 25.1444 19.5989 25.0506 18.4656 25.0506C17.3322 25.0506 14.8952 25.141 13.873 24.7377C13.1916 24.4665 12.6667 23.9416 12.392 23.2567C11.9853 22.2311 12.0791 19.7975 12.0791 18.6641C12.0791 17.5308 11.9887 15.0937 12.392 14.0716C12.6632 13.3902 13.1882 12.8652 13.873 12.5906C14.8986 12.1838 17.3322 12.2777 18.4656 12.2777C19.5989 12.2777 22.036 12.1873 23.0581 12.5906C23.7395 12.8617 24.2645 13.3867 24.5391 14.0716C24.9459 15.0972 24.852 17.5308 24.852 18.6641C24.852 19.7975 24.9459 22.2346 24.5391 23.2567Z" fill="#2A2F2F"/>
</svg>
