<svg width="9" height="6" viewBox="0 0 9 6" fill="none" xmlns="http://www.w3.org/2000/svg">
<path fill-rule="evenodd" clip-rule="evenodd" d="M0.231513 0.120431C0.489749 -0.0764569 0.858701 -0.026725 1.05559 0.231511L3.98952 4.07962C4.06257 4.12798 4.16921 4.12798 4.24226 4.07962L7.17619 0.231511C7.37308 -0.026725 7.74203 -0.0764568 8.00027 0.120431C8.2585 0.31732 8.30823 0.686271 8.11135 0.944507L5.16729 4.80589C5.13294 4.85095 5.08094 4.91332 5.00893 4.97299C4.49583 5.39813 3.73594 5.39813 3.22285 4.97299C3.15084 4.91332 3.09884 4.85095 3.06449 4.80589L0.120433 0.944507C-0.0764557 0.686271 -0.0267233 0.31732 0.231513 0.120431Z" fill="#3C4242"/>
</svg>
