<svg width="9" height="6" viewBox="0 0 9 6" fill="none" xmlns="http://www.w3.org/2000/svg">
<path fill-rule="evenodd" clip-rule="evenodd" d="M8.20257 5.31582C7.94433 5.51271 7.57538 5.46298 7.37849 5.20474L4.44456 1.35664C4.37152 1.30828 4.26487 1.30828 4.19182 1.35664L1.25789 5.20474C1.061 5.46298 0.692053 5.51271 0.433817 5.31582C0.17558 5.11894 0.125848 4.74999 0.322736 4.49175L3.26679 0.630362C3.30115 0.585302 3.35314 0.52294 3.42515 0.463271C3.93825 0.0381217 4.69814 0.0381217 5.21123 0.463271C5.28325 0.52294 5.33524 0.585302 5.3696 0.630362L8.31365 4.49175C8.51054 4.74999 8.46081 5.11894 8.20257 5.31582Z" fill="#3C4242"/>
</svg>
