<svg width="38" height="38" viewBox="0 0 38 38" fill="none" xmlns="http://www.w3.org/2000/svg">
<rect x="0.984009" y="0.193848" width="37.024" height="37.024" rx="10.68" fill="#F6F6F6"/>
<path d="M28.3464 15.1888C28.3577 15.347 28.3577 15.5051 28.3577 15.6632C28.3577 20.4859 24.687 26.0428 17.9781 26.0428C15.9112 26.0428 13.9912 25.4441 12.3761 24.4051C12.6698 24.439 12.9521 24.4503 13.2571 24.4503C14.9625 24.4503 16.5324 23.8743 17.7861 22.8916C16.1823 22.8578 14.8383 21.8074 14.3752 20.3617C14.6011 20.3955 14.827 20.4181 15.0642 20.4181C15.3917 20.4181 15.7193 20.3729 16.0242 20.2939C14.3526 19.9551 13.0989 18.4868 13.0989 16.7136V16.6684C13.5846 16.9395 14.1493 17.1089 14.7479 17.1315C13.7653 16.4764 13.1215 15.3583 13.1215 14.0933C13.1215 13.4156 13.3022 12.7944 13.6184 12.2523C15.4143 14.466 18.1136 15.9117 21.1405 16.0698C21.0841 15.7987 21.0502 15.5164 21.0502 15.234C21.0502 13.2236 22.6766 11.5859 24.6983 11.5859C25.7486 11.5859 26.6973 12.0264 27.3637 12.738C28.1882 12.5799 28.9788 12.2749 29.6791 11.857C29.408 12.7041 28.832 13.4157 28.0753 13.8674C28.8094 13.7884 29.521 13.585 30.176 13.3027C29.6792 14.0255 29.0579 14.6693 28.3464 15.1888Z" fill="#2A2F2F"/>
</svg>
